# xmcd
#
# Track frame offsets: 
#        150
#        26674
#        44486
#        69170
#        86666
#        133350
#        151730
#        174080
#        195950
#        205340
#        233902
#        257581
#        271350
#        298709
#        324592
#
# Disc length: 4558 seconds
#
# Revision: 1
# Processed by: cddbd v1.5.2PL0 Copyright (c) Steve Scherf et al.
# Submitted via: ExactAudioCopy v0.99pb5
#
DISCID=d011cc0f
DTITLE=Various Artist - This Is The Blues Vol One
DYEAR=2010
DGENRE=Blues
TTITLE0=Jeff Beck - Hobo Blues
TTITLE1=Larry McCray - Black Magic Woman
TTITLE2=Vince Converse - Rattlesnake Shake
TTITLE3=Savoy Brown - Going Down To Mobile
TTITLE4=Mick Taylor - You Shook Me
TTITLE5=Zakiya Hooker - I Want To Hug You
TTITLE6=Larry Mitchell - I Loved Another Woman
TTITLE7=Harvey Mandel - Long Grey Mare
TTITLE8=Ray Gomez - Evil Woman Blues
TTITLE9=Jack Bruce - I'm In The Mood
TTITLE10=Luther Grosvenor - Crying Won't Bring You Back
TTITLE11=T S McPhee - Drop Down Mama
TTITLE12=Paul Jones - Play On Little Girl, T-Bone Shuffle
TTITLE13=T S McPhee - Ground Hog Blues
TTITLE14=Chris Jagger - Racketeer Blues
EXTD=
EXTT0=
EXTT1=
EXTT2=
EXTT3=
EXTT4=
EXTT5=
EXTT6=
EXTT7=
EXTT8=
EXTT9=
EXTT10=
EXTT11=
EXTT12=
EXTT13=
EXTT14=
PLAYORDER=
